PathFileType	4	(X/Y/Z)	/home/abdul/Desktop/myosuite/custom_workspace/IK/output/S5_12_3.trc
DataRate	CameraRate	NumFrames	NumMarkers	Units	OrigDataRate	OrigDataStartFrame	OrigNumFrames
200.0	200.0	22	3	mm	200.0	844	1350
Frame#	Time	V_Shoulder			V_Elbow			V_Wrist		
		X1	Y1	Z1	X2	Y2	Z2	X3	Y3	Z3

844	4.215	2.4543309416432546	737.0053609673165	255.00619373006893	-143.7129308492046	546.594040926459	55.693428445060434	-40.09519729018906	328.58077152567057	112.4056231817072
845	4.22	2.447432736089318	736.8318794488836	254.9628885957206	-143.53380182025205	546.4504202300186	55.43905725649724	-40.107173104107595	328.21071229724214	110.96858440603985
846	4.225	2.4406558655826376	736.6623287157886	254.91866998871004	-143.35005423887753	546.3112585710719	55.17989630703414	-40.10166678190121	327.8769140480483	109.56573946782768
847	4.23	2.434015269515569	736.4968083015923	254.8735801662282	-143.16198908621902	546.1769115418945	54.91602122777014	-40.07944597772139	327.5778918981489	108.1967679304563
848	4.235	2.4275252726897167	736.335410648705	254.82766241785953	-142.96989877063555	546.0477033291148	54.64752884947774	-40.041294521201394	327.31214140784994	106.86130541475555
849	4.24	2.4211995499222767	736.1782209849563	254.7809609899581	-142.77406696365176	545.923926552626	54.37453645938058	-39.98801011201413	327.0781425840048	105.55894566258644
850	4.245	2.415051093299787	736.0253172170742	254.7335210085083	-142.5747684642006	545.8058422105901	54.097181006035015	-39.9204019933559	326.8743638463462	104.28924267814656
851	4.25	2.4090921821916824	735.8767698412598	254.68538840062615	-142.3722690907073	545.6936797285308	53.815618256476704	-39.83928861230255	326.69926594253786	103.05171293796019
852	4.255	2.4033343561256224	735.732641870986	254.63660981485984	-142.16682560051265	545.5876371101826	53.5300219098812	-39.74549527497084	326.55130580106004	101.84583766038445
853	4.26	2.397788390615772	735.5929887821018	254.58723254044776	-141.9586856360877	545.4878811874576	53.2405826720534	-39.63985180437279	326.4289403115006	100.6710651253758
854	4.265	2.3924642760240737	735.4578584752697	254.53730442569918	-141.7480876974524	545.3945479666024	52.94750729510413	-39.52319020877723	326.3306300223133	99.52681303521616
855	4.27	2.3873711995229803	735.3272912557162	254.4868737956583	-141.5352611401698	545.3077430673497	52.65101758669331	-39.39634236828956	326.25484274661903	98.41247090690044
856	4.275	2.382517530216368	735.2013198302247	254.43598936921853	-141.3204261982503	545.2275422516192	52.3513493932196	-39.26013774722981	326.2000570671622	97.32740248693267
857	4.28	2.3779108074632873	735.0799693212504	254.38470017585107	-141.10379403126527	545.153992038096	52.04875156131531	-39.11540113973163	326.1647657320983	96.27094817936768
858	4.285	2.373557732436935	734.9632572979853	254.3330554721149	-140.8855667949364	545.0871103988129	51.74348488196427	-38.962950455801014	326.1474789338606	95.24242747806738
859	4.29	2.369464162938864	734.8511938241587	254.28110465811383	-140.66593773443583	545.0268875336722	51.435821021500104	-38.80359455486567	326.1467274639508	94.24114139431573
860	4.295	2.365635111475956	734.7437815223093	254.22889719406734	-140.445091299603	544.9732867186835	51.12604144366345	-38.63813113361436	326.16106573710005	93.26637487114942
861	4.3	2.3620747465950807	734.6410156542137	254.17648251716074	-140.22320328125886	544.9262452235569	50.81443632680001	-38.467344674672376	326.18907467886027	92.31739917601585
862	4.305	2.358786397457854	734.5428842171268	254.1239099588406	-140.00044096777066	544.8856752941604	50.50130348016843	-38.29200446238514	326.22936447130667	91.39347426365873
863	4.31	2.3557725616253533	734.4493680554298	254.07122866271834	-139.77696332100066	544.8514651952644	50.18694726319882	-38.112862671688795	326.2805771521529	90.49385110145641
864	4.315	2.353034916010237	734.3604409872513	254.01848750324586	-139.55292117074876	544.8234803089067	49.8716775114002	-37.93065253573595	326.34138906320584	89.61777394979576
865	4.32	2.350574330941427	734.2760699455848	253.96573500532395	-139.3284574267817	544.8015642836613	49.555808472459496	-37.74608659761783	326.4105131447078	88.76448259045094
